# xmcd
#
# Track frame offsets: 
#        150
#        13390
#        27536
#        39643
#        53882
#        70665
#        86733
#        99851
#        112136
#        124815
#        135015
#        152780
#
# Disc length: 2239 seconds
#
# Revision: 2
# Processed by: cddbd v1.5.2PL0 Copyright (c) Steve Scherf et al.
# Submitted via: ExactAudioCopyFreeDBPlugin 1.0
#
DISCID=9e08bd0c
DTITLE=露雲娜 - 青春1,000日
DYEAR=2004
DGENRE=Pop
TTITLE0=青春1,000日
TTITLE1=荳牙夢
TTITLE2=千年女王
TTITLE3=Easier to Fall In Love
TTITLE4=大個女
TTITLE5=空想家
TTITLE6=傳說
TTITLE7=檸檬可樂
TTITLE8=知心可是你
TTITLE9=一切像起飛
TTITLE10=Too Young to Know
TTITLE11=細雨濃情
EXTD=
EXTT0=
EXTT1=
EXTT2=
EXTT3=
EXTT4=
EXTT5=
EXTT6=
EXTT7=
EXTT8=
EXTT9=
EXTT10=
EXTT11=
PLAYORDER=
